# xmcd
#
# Track frame offsets:
#	150
#	6183
#	21469
#	39882
#	59084
#	87128
#	103589
#	125610
#	140152
#	164186
#	182312
#	199931
#	216305
#
# Disc length: 3158 seconds
#
# Revision: 1
# Processed by: cddbd v1.4PL0 Copyright (c) Steve Scherf et al.
# Submitted via: CDmax 2.0
#
DISCID=c00c540d
DTITLE=Kenna - new sacred cow
DYEAR=2003
DGENRE=New Age
TTITLE0=within earshot
TTITLE1=freetime
TTITLE2=man fading
TTITLE3=sunday after you
TTITLE4=vexed and glorious a better control
TTITLE5=red man
TTITLE6=hell bent
TTITLE7=yeneh ababa (rose)
TTITLE8=war in me
TTITLE9=new sacred cow
TTITLE10=i'm gone
TTITLE11=siren
TTITLE12=love/hate sensation
EXTD=YEAR: 2003
EXTT0=
EXTT1=
EXTT2=
EXTT3=
EXTT4=
EXTT5=
EXTT6=
EXTT7=
EXTT8=
EXTT9=
EXTT10=
EXTT11=
EXTT12=
PLAYORDER=
